<svg xmlns="http://www.w3.org/2000/svg" viewBox="0 0 7868.22 2012.41" role="img"><title>INRGIFT — Invest Beyond Borders</title><path fill="#071A33" d="M232.2 354.5C254.3 328.9 286.4 314.1 320.3 314.1L1218.5 314.1L987.4 583.1C982.4 588.9 975.2 592.2 967.6 592.2L72.5 592.2C55.1 592.2 45.6 571.7 57 558.5ZM189.7 717.9C207 697.8 232.3 686.2 258.8 686.2L1334.8 686.2C1347.2 686.2 1353.8 700.7 1345.8 710.1L1134.3 956.3L1069.6 956.3C1049.9 1198.2 771 1398 509 1393.8L509 1393.8L1083.4 1986.9C1092.6 1996.5 1085.9 2012.4 1072.6 2012.4L701.4 2012.4C697.2 2012.4 693.1 2010.7 690.2 2007.7L36.6 1332.6C31.5 1327.3 28.6 1320.2 28.6 1312.9L28.6 1241.6C28.6 1197.6 64.2 1162 108.1 1162L340.4 1162C553.1 1169.7 713.4 1085.7 748 956.3L748 956.3L12.8 956.3C1.9 956.3 -4 943.4 3.1 935.1Z"/><path fill="#245BFF" d="M1100.3 592.2C1093 592.2 1089.1 583.7 1093.8 578.2L1474 135.7L1423.4 82.6C1409.1 67.5 1418.1 42.6 1438.7 40.2L1777 0.1C1784.4 -0.8 1790.6 5.6 1789.5 13L1737.4 351.6C1736.3 358.7 1728.1 362 1722.4 357.7L1652.3 304.7L1411.5 585C1407.6 589.6 1401.8 592.2 1395.8 592.2Z"/><path fill="#0B0E14" d="M3834.4 495.8L4345.8 495.8C4537.4 495.8 4685.5 632.6 4685.5 809.5C4685.5 943.7 4606.3 1059.4 4493.2 1110.3L4713.9 1434.7L4440.4 1434.7L4245.5 1137.9L4068.4 1137.9L4068.4 1434.7L3834.4 1434.7ZM2681.6 1434.7L2681.6 495.8L2926.2 495.8L3406.5 1081.4L3406.5 495.8L3640.6 495.8L3640.6 1434.7L3406.8 1434.7L2915.6 843.2L2915.6 1434.7ZM5715.4 897.7L5715.4 1209.4C5675.4 1284.6 5616.1 1345.7 5542.2 1388.2C5540.1 1389.4 5538 1390.5 5535.9 1391.7C5462.3 1432.4 5374.8 1455 5277.6 1455C4986.7 1455 4782 1253.1 4782 966.4C4782 679.6 4986.7 477.8 5277.6 477.8C5464.9 477.8 5616.6 561.5 5700.7 697.7L5514.8 834.8C5474.2 744.2 5389.9 689 5280.2 689C5124 689 5019.2 801 5019.2 967.8C5019.2 1134.7 5124 1246.7 5280.2 1246.7C5397 1246.7 5485.1 1184.1 5522.1 1082.8L5275.4 1082.8L5275.4 897.7ZM6264 495.8L6948.9 495.8L6948.9 697.4L6498 697.4L6498 894.2L6892.5 894.2L6892.5 1095.8L6498 1095.8L6498 1434.7L6264 1434.7ZM7061.6 495.8L7868.2 495.8L7868.2 697.4L7579.8 697.4L7579.8 1434.7L7345.7 1434.7L7345.7 697.4L7061.6 697.4ZM2246.5 495.8L2480.6 495.8L2480.6 1434.7L2246.5 1434.7ZM5855.3 495.8L6089.4 495.8L6089.4 1434.7L5855.3 1434.7ZM4068.4 699.2L4068.4 941.1L4303.7 941.1C4385.3 941.1 4443 891.1 4443 820.2C4443 749.3 4386.3 699.2 4306.1 699.2ZM2244.8 1864L2244.8 1683L2270.7 1683L2270.7 1864ZM2422.6 1864L2422.6 1683L2443.8 1683L2552.4 1817.8L2552.4 1683L2578.2 1683L2578.2 1864L2557 1864L2448.4 1729.1L2448.4 1864ZM2790 1864L2710.3 1683L2738.2 1683L2803.4 1831.8L2869.1 1683L2895 1683L2815.6 1864ZM3024.1 1864L3024.1 1683L3151.8 1683L3151.8 1705.4L3049.9 1705.4L3049.9 1761L3140.7 1761L3140.7 1783L3049.9 1783L3049.9 1841.5L3155.5 1841.5L3155.5 1864ZM3356.7 1866C3342.9 1866 3329.7 1863.9 3317.2 1859.7C3304.6 1855.5 3294.7 1850 3287.4 1843.3L3297 1823.1C3303.9 1829.1 3312.7 1834.1 3323.4 1838.1C3334 1842.1 3345.2 1844.1 3356.7 1844.1C3367.2 1844.1 3375.8 1842.8 3382.3 1840.4C3388.9 1838 3393.7 1834.7 3396.8 1830.5C3399.9 1826.3 3401.5 1821.5 3401.5 1816.1C3401.5 1809.9 3399.4 1804.9 3395.4 1801.1C3391.3 1797.3 3386.1 1794.3 3379.6 1791.9C3373.1 1789.6 3366 1787.6 3358.3 1785.9C3350.5 1784.1 3342.7 1782.1 3334.9 1779.8C3327 1777.5 3319.9 1774.5 3313.4 1770.9C3306.9 1767.3 3301.7 1762.4 3297.8 1756.3C3293.8 1750.1 3291.8 1742.3 3291.8 1732.6C3291.8 1723.3 3294.3 1714.7 3299.2 1706.9C3304.1 1699 3311.7 1692.7 3321.9 1688C3332.2 1683.3 3345.3 1680.9 3361.1 1680.9C3371.6 1680.9 3382.1 1682.3 3392.4 1685C3402.7 1687.8 3411.7 1691.7 3419.3 1696.9L3410.8 1717.6C3403 1712.4 3394.8 1708.7 3386.2 1706.4C3377.6 1704 3369.2 1702.9 3361.1 1702.9C3350.9 1702.9 3342.6 1704.2 3336 1706.7C3329.5 1709.3 3324.7 1712.8 3321.7 1717.1C3318.7 1721.4 3317.2 1726.2 3317.2 1731.6C3317.2 1737.9 3319.2 1743 3323.2 1746.8C3327.3 1750.6 3332.5 1753.6 3339 1755.9C3345.5 1758.1 3352.6 1760.1 3360.3 1762C3368.1 1763.8 3375.9 1765.8 3383.7 1768C3391.6 1770.3 3398.7 1773.2 3405.2 1776.8C3411.7 1780.4 3416.9 1785.3 3420.8 1791.3C3424.8 1797.3 3426.8 1805.1 3426.8 1814.6C3426.8 1823.7 3424.3 1832.2 3419.3 1840C3414.3 1847.9 3406.6 1854.2 3396.2 1858.9C3385.7 1863.7 3372.6 1866 3356.7 1866ZM3612.9 1864L3612.9 1705.4L3550.9 1705.4L3550.9 1683L3700.6 1683L3700.6 1705.4L3638.5 1705.4L3638.5 1864ZM4007.3 1864L4007.3 1683L4088.5 1683C4109.4 1683 4125.4 1687.1 4136.6 1695.5C4147.8 1703.9 4153.4 1715.3 4153.4 1729.8C4153.4 1739.6 4151.2 1747.9 4146.8 1754.6C4142.4 1761.3 4136.5 1766.5 4129.1 1770.1C4129 1770.1 4128.9 1770.2 4128.9 1770.2C4131.7 1771 4134.5 1772 4137.1 1773.2C4145 1776.8 4151.3 1782.1 4156 1789.1C4160.6 1796.1 4163 1804.7 4163 1815.1C4163 1830.6 4157.1 1842.6 4145.5 1851.2C4133.9 1859.7 4116.6 1864 4093.7 1864ZM4033.2 1843L4092.6 1843C4106.9 1843 4117.9 1840.6 4125.5 1835.8C4133.1 1831 4136.8 1823.4 4136.8 1813C4136.8 1802.5 4133.1 1794.8 4125.5 1790C4117.9 1785.2 4106.9 1782.8 4092.6 1782.8L4033.2 1782.8ZM4033.2 1761.8L4086.2 1761.8C4099.3 1761.8 4109.4 1759.4 4116.7 1754.6C4123.9 1749.8 4127.5 1742.5 4127.5 1732.9C4127.5 1723.2 4123.9 1716 4116.7 1711.1C4109.4 1706.3 4099.3 1703.9 4086.2 1703.9L4033.2 1703.9L4033.2 1761.8ZM4301 1864L4301 1683L4428.7 1683L4428.7 1705.4L4326.8 1705.4L4326.8 1761L4417.6 1761L4417.6 1783L4326.8 1783L4326.8 1841.5L4432.3 1841.5L4432.3 1864ZM4624.4 1864L4624.4 1800.9L4552.5 1683L4580.2 1683L4638.1 1778.4L4696.3 1683L4721.9 1683L4650 1801.3L4650 1864ZM4928.5 1866C4914.8 1866 4902 1863.7 4890.1 1859.1C4878.3 1854.4 4868.1 1847.9 4859.5 1839.5C4850.9 1831.2 4844.2 1821.4 4839.3 1810.2C4834.5 1799 4832.1 1786.7 4832.1 1773.5C4832.1 1760.2 4834.5 1747.9 4839.3 1736.7C4844.2 1725.5 4850.9 1715.7 4859.5 1707.4C4868.1 1699 4878.3 1692.5 4890 1687.9C4901.7 1683.2 4914.6 1680.9 4928.5 1680.9C4942.3 1680.9 4955 1683.2 4966.7 1687.7C4978.3 1692.3 4988.5 1698.8 4997.2 1707.1C5005.9 1715.5 5012.6 1725.3 5017.4 1736.5C5022.1 1747.7 5024.5 1760 5024.5 1773.5C5024.5 1786.9 5022.1 1799.2 5017.4 1810.4C5012.6 1821.6 5005.9 1831.4 4997.2 1839.8C4988.5 1848.1 4978.3 1854.6 4966.7 1859.2C4955 1863.7 4942.3 1866 4928.5 1866ZM4928.5 1843C4938.5 1843 4947.8 1841.3 4956.3 1837.8C4964.9 1834.4 4972.3 1829.5 4978.6 1823.2C4984.9 1816.9 4989.8 1809.6 4993.3 1801.1C4996.9 1792.7 4998.6 1783.5 4998.6 1773.5C4998.6 1763.5 4996.9 1754.2 4993.3 1745.8C4989.8 1737.3 4984.9 1730 4978.6 1723.7C4972.3 1717.4 4964.9 1712.5 4956.3 1709.1C4947.8 1705.6 4938.5 1703.9 4928.5 1703.9C4918.4 1703.9 4909 1705.6 4900.5 1709.1C4892 1712.5 4884.5 1717.4 4878.1 1723.7C4871.7 1730 4866.8 1737.3 4863.3 1745.8C4859.7 1754.2 4857.9 1763.5 4857.9 1773.5C4857.9 1783.5 4859.7 1792.7 4863.3 1801.1C4866.8 1809.6 4871.7 1816.9 4878.1 1823.2C4884.5 1829.5 4892 1834.4 4900.5 1837.8C4909 1841.3 4918.4 1843 4928.5 1843ZM5168.3 1864L5168.3 1683L5189.5 1683L5298.1 1817.8L5298.1 1683L5324 1683L5324 1864L5302.8 1864L5194.1 1729.1L5194.1 1864ZM5472.1 1864L5472.1 1683L5548.4 1683C5567.7 1683 5584.7 1686.7 5599.5 1694.3C5614.2 1701.9 5625.7 1712.5 5633.8 1726.1C5642 1739.8 5646.1 1755.5 5646.1 1773.5C5646.1 1791.4 5642 1807.2 5633.8 1820.8C5625.7 1834.4 5614.2 1845 5599.5 1852.6C5584.7 1860.2 5567.7 1864 5548.4 1864ZM5498 1841.5L5546.8 1841.5C5561.8 1841.5 5574.8 1838.6 5585.8 1832.9C5596.7 1827.2 5605.2 1819.3 5611.2 1809C5617.3 1798.8 5620.3 1786.9 5620.3 1773.5C5620.3 1759.8 5617.3 1747.9 5611.2 1737.8C5605.2 1727.6 5596.7 1719.7 5585.8 1714C5574.8 1708.3 5561.8 1705.4 5546.8 1705.4L5498 1705.4ZM5957.4 1864L5957.4 1683L6038.6 1683C6059.5 1683 6075.5 1687.1 6086.7 1695.5C6097.9 1703.9 6103.5 1715.3 6103.5 1729.8C6103.5 1739.6 6101.3 1747.9 6096.9 1754.6C6092.5 1761.3 6086.6 1766.5 6079.2 1770.1C6079.1 1770.1 6079 1770.2 6079 1770.2C6081.8 1771 6084.6 1772 6087.2 1773.2C6095.1 1776.8 6101.4 1782.1 6106.1 1789.1C6110.7 1796.1 6113.1 1804.7 6113.1 1815.1C6113.1 1830.6 6107.3 1842.6 6095.6 1851.2C6084 1859.7 6066.7 1864 6043.8 1864ZM5983.3 1843L6042.7 1843C6057 1843 6068 1840.6 6075.6 1835.8C6083.2 1831 6087 1823.4 6087 1813C6087 1802.5 6083.2 1794.8 6075.6 1790C6068 1785.2 6057 1782.8 6042.7 1782.8L5983.3 1782.8ZM5983.3 1761.8L6036.3 1761.8C6049.4 1761.8 6059.5 1759.4 6066.8 1754.6C6074 1749.8 6077.6 1742.5 6077.6 1732.9C6077.6 1723.2 6074 1716 6066.8 1711.1C6059.5 1706.3 6049.4 1703.9 6036.3 1703.9L5983.3 1703.9L5983.3 1761.8ZM6332.6 1866C6318.8 1866 6306 1863.7 6294.2 1859.1C6282.4 1854.4 6272.1 1847.9 6263.5 1839.5C6254.9 1831.2 6248.2 1821.4 6243.4 1810.2C6238.5 1799 6236.1 1786.7 6236.1 1773.5C6236.1 1760.2 6238.5 1747.9 6243.4 1736.7C6248.2 1725.5 6254.9 1715.7 6263.5 1707.4C6272.1 1699 6282.3 1692.5 6294 1687.9C6305.8 1683.2 6318.6 1680.9 6332.6 1680.9C6346.4 1680.9 6359.1 1683.2 6370.7 1687.7C6382.3 1692.3 6392.5 1698.8 6401.2 1707.1C6409.9 1715.5 6416.7 1725.3 6421.4 1736.5C6426.1 1747.7 6428.5 1760 6428.5 1773.5C6428.5 1786.9 6426.1 1799.2 6421.4 1810.4C6416.7 1821.6 6409.9 1831.4 6401.2 1839.8C6392.5 1848.1 6382.3 1854.6 6370.7 1859.2C6359.1 1863.7 6346.4 1866 6332.6 1866ZM6332.6 1843C6342.6 1843 6351.8 1841.3 6360.4 1837.8C6368.9 1834.4 6376.3 1829.5 6382.6 1823.2C6388.9 1816.9 6393.8 1809.6 6397.3 1801.1C6400.9 1792.7 6402.6 1783.5 6402.6 1773.5C6402.6 1763.5 6400.9 1754.2 6397.3 1745.8C6393.8 1737.3 6388.9 1730 6382.6 1723.7C6376.3 1717.4 6368.9 1712.5 6360.4 1709.1C6351.8 1705.6 6342.6 1703.9 6332.6 1703.9C6322.4 1703.9 6313 1705.6 6304.5 1709.1C6296 1712.5 6288.5 1717.4 6282.1 1723.7C6275.8 1730 6270.8 1737.3 6267.3 1745.8C6263.7 1754.2 6262 1763.5 6262 1773.5C6262 1783.5 6263.7 1792.7 6267.3 1801.1C6270.8 1809.6 6275.8 1816.9 6282.1 1823.2C6288.5 1829.5 6296 1834.4 6304.5 1837.8C6313 1841.3 6322.4 1843 6332.6 1843ZM6565 1864L6565 1683L6635.6 1683C6659.1 1683 6677.5 1688.5 6690.9 1699.6C6704.4 1710.7 6711.1 1726.2 6711.1 1746C6711.1 1759.1 6708.1 1770.4 6702.1 1779.8C6696 1789.2 6687.4 1796.4 6676.2 1801.4C6674.6 1802.1 6673 1802.8 6671.3 1803.4L6714.2 1864L6686 1864L6647.1 1808.4C6643.4 1808.7 6639.6 1808.9 6635.6 1808.9L6590.9 1808.9L6590.9 1864ZM6590.9 1786.9L6634.8 1786.9C6651.4 1786.9 6663.9 1783.3 6672.5 1776.2C6681 1769 6685.3 1759 6685.3 1746C6685.3 1733.1 6681 1723.1 6672.5 1716.1C6663.9 1709 6651.4 1705.4 6634.8 1705.4L6590.9 1705.4L6590.9 1786.9ZM6851.9 1864L6851.9 1683L6928.2 1683C6947.5 1683 6964.5 1686.7 6979.2 1694.3C6994 1701.9 7005.4 1712.5 7013.6 1726.1C7021.8 1739.8 7025.9 1755.5 7025.9 1773.5C7025.9 1791.4 7021.8 1807.2 7013.6 1820.8C7005.4 1834.4 6994 1845 6979.2 1852.6C6964.5 1860.2 6947.5 1864 6928.2 1864ZM6877.7 1841.5L6926.6 1841.5C6941.6 1841.5 6954.6 1838.6 6965.5 1832.9C6976.5 1827.2 6985 1819.3 6991 1809C6997 1798.8 7000.1 1786.9 7000.1 1773.5C7000.1 1759.8 6997 1747.9 6991 1737.8C6985 1727.6 6976.5 1719.7 6965.5 1714C6954.6 1708.3 6941.6 1705.4 6926.6 1705.4L6877.7 1705.4ZM7162.1 1864L7162.1 1683L7289.8 1683L7289.8 1705.4L7187.9 1705.4L7187.9 1761L7278.7 1761L7278.7 1783L7187.9 1783L7187.9 1841.5L7293.5 1841.5L7293.5 1864ZM7433.4 1864L7433.4 1683L7504 1683C7527.5 1683 7545.9 1688.5 7559.4 1699.6C7572.8 1710.7 7579.6 1726.2 7579.6 1746C7579.6 1759.1 7576.5 1770.4 7570.5 1779.8C7564.5 1789.2 7555.8 1796.4 7544.6 1801.4C7543 1802.1 7541.4 1802.8 7539.7 1803.4L7582.7 1864L7554.5 1864L7515.5 1808.4C7511.9 1808.7 7508 1808.9 7504 1808.9L7459.3 1808.9L7459.3 1864ZM7459.3 1786.9L7503.3 1786.9C7519.8 1786.9 7532.4 1783.3 7540.9 1776.2C7549.4 1769 7553.7 1759 7553.7 1746C7553.7 1733.1 7549.4 1723.1 7540.9 1716.1C7532.4 1709 7519.8 1705.4 7503.3 1705.4L7459.3 1705.4L7459.3 1786.9ZM7783.7 1866C7769.9 1866 7756.7 1863.9 7744.1 1859.7C7731.5 1855.5 7721.6 1850 7714.4 1843.3L7723.9 1823.1C7730.8 1829.1 7739.6 1834.1 7750.3 1838.1C7761 1842.1 7772.1 1844.1 7783.7 1844.1C7794.2 1844.1 7802.7 1842.8 7809.3 1840.4C7815.8 1838 7820.7 1834.7 7823.8 1830.5C7826.9 1826.3 7828.4 1821.5 7828.4 1816.1C7828.4 1809.9 7826.4 1804.9 7822.3 1801.1C7818.3 1797.3 7813 1794.3 7806.6 1791.9C7800.1 1789.6 7793 1787.6 7785.2 1785.9C7777.5 1784.1 7769.7 1782.1 7761.8 1779.8C7754 1777.5 7746.8 1774.5 7740.4 1770.9C7733.9 1767.3 7728.7 1762.4 7724.7 1756.3C7720.8 1750.1 7718.8 1742.3 7718.8 1732.6C7718.8 1723.3 7721.2 1714.7 7726.1 1706.9C7731.1 1699 7738.6 1692.7 7748.9 1688C7759.2 1683.3 7772.2 1680.9 7788.1 1680.9C7798.6 1680.9 7809 1682.3 7819.4 1685C7829.7 1687.8 7838.7 1691.7 7846.3 1696.9L7837.7 1717.6C7830 1712.4 7821.8 1708.7 7813.2 1706.4C7804.5 1704 7796.2 1702.9 7788.1 1702.9C7777.9 1702.9 7769.5 1704.2 7763 1706.7C7756.4 1709.3 7751.7 1712.8 7748.6 1717.1C7745.6 1721.4 7744.1 1726.2 7744.1 1731.6C7744.1 1737.9 7746.1 1743 7750.2 1746.8C7754.2 1750.6 7759.5 1753.6 7766 1755.9C7772.4 1758.1 7779.5 1760.1 7787.3 1762C7795.1 1763.8 7802.9 1765.8 7810.7 1768C7818.5 1770.3 7825.7 1773.2 7832.2 1776.8C7838.6 1780.4 7843.8 1785.3 7847.8 1791.3C7851.8 1797.3 7853.8 1805.1 7853.8 1814.6C7853.8 1823.7 7851.3 1832.2 7846.3 1840C7841.3 1847.9 7833.5 1854.2 7823.1 1858.9C7812.7 1863.7 7799.5 1866 7783.7 1866Z"/></svg>